<svg width="240" height="58" viewBox="0 0 240 58" fill="none" xmlns="http://www.w3.org/2000/svg">
<path d="M81.154 18.7987V20.9736H61.2649V27.8592H80.2761V29.4866H61.2649V37.5224H81.154V39.6973H58.6006V18.7987H81.154Z" fill="black"/>
<path d="M105.971 18.7987C109.593 18.7987 112.376 21.5884 112.376 25.204C112.376 28.8197 109.593 31.6094 105.971 31.6094H88.7277V39.6942H86.0664V18.7956H105.971V18.7987ZM88.7277 29.4345H105.481C107.873 29.4345 109.712 27.593 109.712 25.204C109.712 22.815 107.873 20.9736 105.481 20.9736H88.7277V29.4345Z" fill="black"/>
<path d="M119.966 18.7986V39.6972H117.305V18.7986H119.966Z" fill="black"/>
<path d="M149.444 18.7986V20.9735H134.838C130.161 20.9735 126.564 24.5769 126.564 29.2479C126.564 33.9189 130.161 37.5223 134.838 37.5223H149.444V39.6972H134.349C128.442 39.6972 123.899 35.1486 123.899 29.2479C123.899 23.3473 128.442 18.7986 134.349 18.7986H149.444Z" fill="black"/>
<path d="M156.694 18.7986V29.2479C156.694 33.9189 160.291 37.5223 164.968 37.5223H170.361C175.038 37.5223 178.635 33.9189 178.635 29.2479V18.7986H181.297V29.2479C181.297 35.1455 176.754 39.6972 170.847 39.6972H164.479C158.572 39.6972 154.029 35.1486 154.029 29.2479V18.7986H156.694Z" fill="black"/>
<path d="M206.117 18.7987C209.739 18.7987 212.523 21.5884 212.523 25.204C212.523 28.5658 210.094 31.2056 206.842 31.5024L212.523 39.6942H209.861L204.261 31.6094H188.874V39.6942H186.213V18.7956H206.117V18.7987ZM188.874 29.4345H205.628C208.02 29.4345 209.858 27.593 209.858 25.204C209.858 22.815 208.02 20.9736 205.628 20.9736H188.874V29.4345Z" fill="black"/>
<path d="M240.001 18.7986V20.9735H220.112V27.8592H239.123V29.4865H220.112V37.5223H240.001V39.6972H217.447V18.7986H240.001Z" fill="black"/>
<path d="M42.7056 18.7833C42.7393 18.7588 42.7698 18.7344 42.7943 18.7038C42.8188 18.6763 42.8371 18.6457 42.8555 18.612C42.8739 18.5784 42.8922 18.5478 42.9044 18.5141C42.9167 18.4774 42.9228 18.4377 42.9289 18.3979C42.9289 18.3734 42.9442 18.352 42.9442 18.3275V8.61852C42.9442 8.41051 42.8341 8.22085 42.6536 8.11685L28.7325 0.0780025C28.552 -0.0260008 28.3317 -0.0260008 28.1543 0.0780025L14.2301 8.11685C14.2301 8.11685 14.2148 8.13215 14.2056 8.13826C14.172 8.15968 14.1475 8.18721 14.1169 8.21474C14.0894 8.24227 14.0619 8.2698 14.0405 8.30039C14.0343 8.30956 14.0221 8.31568 14.016 8.32792C14.0037 8.34933 14.0037 8.3738 13.9915 8.39521C13.9762 8.43192 13.9609 8.46863 13.9548 8.5084C13.9487 8.54511 13.9456 8.58181 13.9487 8.61852C13.9487 8.65522 13.9487 8.69193 13.9548 8.72863C13.964 8.7684 13.9762 8.80512 13.9915 8.84182C14.0007 8.86323 14.0007 8.88771 14.016 8.90912C14.0221 8.9183 14.0313 8.92441 14.0405 8.93665C14.0619 8.9703 14.0894 8.99477 14.1169 9.0223C14.1445 9.04983 14.172 9.07736 14.2026 9.09877C14.2118 9.10489 14.2179 9.11406 14.227 9.12324L18.2006 11.4174C18.1945 11.6132 18.2373 11.809 18.3382 11.9833C18.5279 12.3137 18.8797 12.5156 19.259 12.5156C19.6383 12.5156 19.9901 12.3137 20.1797 11.9833C20.3694 11.653 20.3694 11.2492 20.1797 10.9188C19.9901 10.5885 19.6383 10.3866 19.259 10.3866C19.1244 10.3866 18.9959 10.4202 18.8736 10.4692L15.6709 8.62158L28.4357 1.25264L41.7788 8.95805V17.9972L24.9394 27.7184C24.7895 27.6389 24.6182 27.59 24.4438 27.59C24.0645 27.59 23.7128 27.7918 23.5231 28.1222C23.3335 28.4526 23.3335 28.8563 23.5231 29.1867C23.7128 29.5171 24.0645 29.719 24.4438 29.719C24.8232 29.719 25.1749 29.5171 25.3646 29.1867C25.4472 29.046 25.4839 28.89 25.4961 28.734L37.3831 21.8728L41.7788 24.4087V29.3672L24.9455 39.1007C24.7926 39.0181 24.6243 38.9722 24.4438 38.9722C24.0645 38.9722 23.7128 39.1741 23.5231 39.5044C23.3335 39.8348 23.3335 40.2386 23.5231 40.569C23.7128 40.8993 24.0645 41.1012 24.4438 41.1012C24.8232 41.1012 25.1749 40.8993 25.3646 40.569C25.4441 40.4313 25.4839 40.2753 25.4961 40.1224L37.6492 33.096L41.7788 35.4789V40.4282L15.0744 55.8483V46.6807C15.2181 46.5889 15.3436 46.4696 15.4323 46.3167C15.6219 45.9863 15.6219 45.5825 15.4323 45.2522C15.2426 44.9218 14.8908 44.7199 14.5115 44.7199C14.1322 44.7199 13.7804 44.9218 13.5908 45.2522C13.4011 45.5825 13.4011 45.9863 13.5908 46.3167C13.6734 46.4574 13.7866 46.5706 13.9181 46.6562V55.8483L1.15321 48.4793L1.15933 33.7476L6.64398 36.9135C6.73269 36.9655 6.83363 36.99 6.93458 36.99C7.03552 36.99 7.13341 36.9655 7.22517 36.9135C7.40565 36.8095 7.51577 36.6199 7.51577 36.4119V30.5357C7.65342 30.447 7.77272 30.3307 7.85837 30.1839C8.04802 29.8536 8.04802 29.4498 7.85837 29.1194C7.66872 28.7891 7.31694 28.5872 6.93764 28.5872C6.55833 28.5872 6.20655 28.7891 6.0169 29.1194C5.82725 29.4498 5.82725 29.8536 6.0169 30.1839C6.10255 30.3307 6.22185 30.447 6.3595 30.5357V35.4086L1.16545 32.4108V17.676L13.9242 25.0419V33.9372C13.7927 34.0259 13.6764 34.1391 13.5939 34.2798C13.4042 34.6102 13.4042 35.014 13.5939 35.3443C13.7835 35.6747 14.1353 35.8766 14.5146 35.8766C14.8939 35.8766 15.2457 35.6747 15.4353 35.3443C15.625 35.014 15.625 34.6102 15.4353 34.2798C15.3466 34.1269 15.2243 34.0076 15.0805 33.9158V25.0357L28.6988 17.1743C28.6988 17.1743 28.7141 17.1682 28.7233 17.1651L35.8108 13.0723C35.9423 13.1304 36.0861 13.1702 36.236 13.1702C36.6153 13.1702 36.9671 12.9683 37.1567 12.6379C37.3464 12.3076 37.3464 11.9038 37.1567 11.5734C36.9671 11.2431 36.6153 11.0412 36.236 11.0412C35.8567 11.0412 35.5049 11.2431 35.3153 11.5734C35.2204 11.7356 35.1745 11.9191 35.1745 12.1026L28.1482 16.1588C28.1482 16.1588 28.136 16.1588 28.1298 16.1649L14.4962 24.0355L1.73747 16.6696L11.0733 11.2798C11.214 11.3471 11.367 11.3899 11.526 11.3899C11.9053 11.3899 12.2571 11.188 12.4468 10.8577C12.6364 10.5273 12.6364 10.1235 12.4468 9.79314C12.2571 9.46278 11.9053 9.26089 11.526 9.26089C11.1467 9.26089 10.7949 9.46278 10.6053 9.79314C10.5166 9.94609 10.4738 10.1174 10.4676 10.2887L0.299774 16.1618C0.299774 16.1618 0.287539 16.171 0.281421 16.1771C0.247773 16.1985 0.217183 16.2199 0.189653 16.2475C0.177417 16.2597 0.168241 16.2719 0.159064 16.2842C0.131534 16.3148 0.100944 16.3392 0.079532 16.3759C0.0550606 16.4188 0.0489428 16.4647 0.0336481 16.5075C0.0336481 16.5075 0.0336481 16.5136 0.0336481 16.5167C0.0183535 16.5717 0.0122357 16.6268 0.0152946 16.6818V26.4092L0 48.8066C0 49.0146 0.110121 49.2043 0.290598 49.3083L14.2118 57.3471C14.2301 57.3563 14.2515 57.3624 14.2699 57.3716C14.2729 57.3716 14.279 57.3747 14.2821 57.3777C14.3525 57.4053 14.4259 57.4267 14.4993 57.4267C14.5727 57.4267 14.6461 57.4083 14.7165 57.3777C14.7226 57.3777 14.7257 57.3747 14.7318 57.3716C14.7501 57.3624 14.7715 57.3594 14.7899 57.3471L42.6506 41.2603C42.831 41.1563 42.9412 40.9666 42.9412 40.7586V35.1424C42.9412 35.118 42.9289 35.0965 42.9259 35.0721C42.9197 35.0323 42.9167 34.9925 42.9014 34.9558C42.8891 34.9191 42.8708 34.8886 42.8524 34.858C42.8341 34.8243 42.8157 34.7968 42.7913 34.7662C42.7637 34.7356 42.7331 34.7111 42.7026 34.6866C42.6842 34.6713 42.672 34.653 42.6506 34.6408L38.8085 32.4231L42.6506 30.2023C42.672 30.19 42.6842 30.1686 42.7026 30.1564C42.7362 30.1319 42.7668 30.1075 42.7913 30.0769C42.8157 30.0493 42.8341 30.0187 42.8524 29.9881C42.8708 29.9545 42.8891 29.9239 42.9014 29.8903C42.9136 29.8535 42.9197 29.8138 42.9259 29.774C42.9259 29.7495 42.9412 29.7281 42.9412 29.7037V24.0783C42.9412 23.8703 42.831 23.6807 42.6506 23.5767L38.5455 21.206L42.6506 18.8353C42.672 18.8231 42.6842 18.8017 42.7056 18.7864V18.7833Z" fill="#19E6B8"/>
</svg>
